# MagicaVoxel @ Ephtracy

# group
o 

# material
mtllib wheel.mtl
usemtl palette

# normals
vn -1 0 0
vn 1 0 0
vn 0 0 1
vn 0 0 -1
vn 0 -1 0
vn 0 1 0

# texcoords
vt 0.0917969 0.5
vt 0.0957031 0.5
vt 0.216797 0.5

# verts
v 2.8 1 -1.3
v 2.8 1 -1.7
v 2.8 1.1 -1.1
v 2.8 1.1 -1.3
v 2.8 1.1 -1.7
v 2.8 1.1 -1.9
v 2.8 1.2 -1.3
v 2.8 1.2 -1.7
v 2.8 1.3 -1
v 2.8 1.3 -1.1
v 2.8 1.3 -1.2
v 2.8 1.3 -1.3
v 2.8 1.3 -1.4
v 2.8 1.3 -1.6
v 2.8 1.3 -1.7
v 2.8 1.3 -1.8
v 2.8 1.3 -1.9
v 2.8 1.3 -2
v 2.8 1.4 -1.3
v 2.8 1.4 -1.4
v 2.8 1.4 -1.6
v 2.8 1.4 -1.7
v 2.8 1.6 -1.3
v 2.8 1.6 -1.4
v 2.8 1.6 -1.6
v 2.8 1.6 -1.7
v 2.8 1.7 -1
v 2.8 1.7 -1.1
v 2.8 1.7 -1.2
v 2.8 1.7 -1.3
v 2.8 1.7 -1.4
v 2.8 1.7 -1.6
v 2.8 1.7 -1.7
v 2.8 1.7 -1.8
v 2.8 1.8 -1.3
v 2.8 1.8 -1.7
v 2.8 1.8 -1.9
v 2.8 1.8 -2
v 2.8 1.9 -1.1
v 2.8 1.9 -1.3
v 2.8 1.9 -1.7
v 2.8 1.9 -1.9
v 2.8 2 -1.3
v 2.8 2 -1.7
v 2.9 1.4 -1.4
v 2.9 1.4 -1.5
v 2.9 1.5 -1.4
v 2.9 1.5 -1.5
v 3 1.6 -1.3
v 3 1.6 -1.6
v 3 1.7 -1.3
v 3 1.7 -1.6
v 3.1 1 -1.3
v 3.1 1 -1.7
v 3.1 1.1 -1.1
v 3.1 1.1 -1.3
v 3.1 1.1 -1.7
v 3.1 1.1 -1.9
v 3.1 1.3 -1
v 3.1 1.3 -1.1
v 3.1 1.3 -1.9
v 3.1 1.3 -2
v 3.1 1.4 -1.4
v 3.1 1.4 -1.5
v 3.1 1.5 -1.4
v 3.1 1.5 -1.5
v 3.1 1.6 -1.3
v 3.1 1.6 -1.6
v 3.1 1.7 -1
v 3.1 1.7 -1.1
v 3.1 1.7 -1.3
v 3.1 1.7 -1.6
v 3.1 1.8 -1.9
v 3.1 1.8 -2
v 3.1 1.9 -1.1
v 3.1 1.9 -1.3
v 3.1 1.9 -1.7
v 3.1 1.9 -1.9
v 3.1 2 -1.3
v 3.1 2 -1.7
v 2.8 1.3 -1
v 2.8 1.7 -1
v 3.1 1.3 -1
v 3.1 1.7 -1
v 2.8 1.1 -1.1
v 2.8 1.3 -1.1
v 2.8 1.7 -1.1
v 2.8 1.9 -1.1
v 3.1 1.1 -1.1
v 3.1 1.3 -1.1
v 3.1 1.7 -1.1
v 3.1 1.9 -1.1
v 2.8 1 -1.3
v 2.8 1.1 -1.3
v 2.8 1.9 -1.3
v 2.8 2 -1.3
v 3.1 1 -1.3
v 3.1 1.1 -1.3
v 3.1 1.9 -1.3
v 3.1 2 -1.3
v 2.9 1.4 -1.5
v 2.9 1.5 -1.5
v 3.1 1.4 -1.5
v 3.1 1.5 -1.5
v 3 1.6 -1.6
v 3 1.7 -1.6
v 3.1 1.6 -1.6
v 3.1 1.7 -1.6
v 3 1.6 -1.3
v 3 1.7 -1.3
v 3.1 1.6 -1.3
v 3.1 1.7 -1.3
v 2.9 1.4 -1.4
v 2.9 1.5 -1.4
v 3.1 1.4 -1.4
v 3.1 1.5 -1.4
v 2.8 1 -1.7
v 2.8 1.1 -1.7
v 2.8 1.9 -1.7
v 2.8 2 -1.7
v 3.1 1 -1.7
v 3.1 1.1 -1.7
v 3.1 1.9 -1.7
v 3.1 2 -1.7
v 2.8 1.1 -1.9
v 2.8 1.3 -1.9
v 2.8 1.8 -1.9
v 2.8 1.9 -1.9
v 3.1 1.1 -1.9
v 3.1 1.3 -1.9
v 3.1 1.8 -1.9
v 3.1 1.9 -1.9
v 2.8 1.3 -2
v 2.8 1.8 -2
v 3.1 1.3 -2
v 3.1 1.8 -2
v 2.8 1 -1.3
v 3.1 1 -1.3
v 2.8 1 -1.7
v 3.1 1 -1.7
v 2.8 1.1 -1.1
v 3.1 1.1 -1.1
v 2.8 1.1 -1.3
v 3.1 1.1 -1.3
v 2.8 1.1 -1.7
v 3.1 1.1 -1.7
v 2.8 1.1 -1.9
v 3.1 1.1 -1.9
v 2.8 1.3 -1
v 3.1 1.3 -1
v 2.8 1.3 -1.1
v 3.1 1.3 -1.1
v 2.8 1.3 -1.9
v 3.1 1.3 -1.9
v 2.8 1.3 -2
v 3.1 1.3 -2
v 2.9 1.5 -1.4
v 3.1 1.5 -1.4
v 2.9 1.5 -1.5
v 3.1 1.5 -1.5
v 3 1.7 -1.3
v 3.1 1.7 -1.3
v 3 1.7 -1.6
v 3.1 1.7 -1.6
v 2.9 1.4 -1.4
v 3.1 1.4 -1.4
v 2.9 1.4 -1.5
v 3.1 1.4 -1.5
v 3 1.6 -1.3
v 3.1 1.6 -1.3
v 3 1.6 -1.6
v 3.1 1.6 -1.6
v 2.8 1.7 -1
v 3.1 1.7 -1
v 2.8 1.7 -1.1
v 3.1 1.7 -1.1
v 2.8 1.8 -1.9
v 3.1 1.8 -1.9
v 2.8 1.8 -2
v 3.1 1.8 -2
v 2.8 1.9 -1.1
v 3.1 1.9 -1.1
v 2.8 1.9 -1.3
v 3.1 1.9 -1.3
v 2.8 1.9 -1.7
v 3.1 1.9 -1.7
v 2.8 1.9 -1.9
v 3.1 1.9 -1.9
v 2.8 2 -1.3
v 3.1 2 -1.3
v 2.8 2 -1.7
v 3.1 2 -1.7

# faces
f 4/3/1 2/3/1 1/3/1
f 5/3/1 2/3/1 4/3/1
f 7/3/1 4/3/1 3/3/1
f 7/3/1 6/3/1 5/3/1
f 7/3/1 5/3/1 4/3/1
f 8/3/1 6/3/1 7/3/1
f 10/3/1 7/3/1 3/3/1
f 11/3/1 7/3/1 10/3/1
f 12/2/1 8/2/1 7/2/1
f 12/3/1 7/3/1 11/3/1
f 13/2/1 8/2/1 12/2/1
f 14/2/1 8/2/1 13/2/1
f 15/3/1 6/3/1 8/3/1
f 15/2/1 8/2/1 14/2/1
f 16/3/1 6/3/1 15/3/1
f 17/3/1 6/3/1 16/3/1
f 19/2/1 12/2/1 11/2/1
f 19/2/1 13/2/1 12/2/1
f 20/1/1 14/1/1 13/1/1
f 20/2/1 13/2/1 19/2/1
f 21/2/1 15/2/1 14/2/1
f 21/1/1 14/1/1 20/1/1
f 21/2/1 16/2/1 15/2/1
f 22/2/1 16/2/1 21/2/1
f 23/2/1 19/2/1 11/2/1
f 23/1/1 20/1/1 19/1/1
f 24/2/1 21/2/1 20/2/1
f 24/1/1 20/1/1 23/1/1
f 25/1/1 22/1/1 21/1/1
f 25/2/1 21/2/1 24/2/1
f 26/2/1 16/2/1 22/2/1
f 26/1/1 22/1/1 25/1/1
f 27/3/1 11/3/1 10/3/1
f 27/3/1 10/3/1 9/3/1
f 28/3/1 11/3/1 27/3/1
f 29/2/1 24/2/1 23/2/1
f 29/3/1 11/3/1 28/3/1
f 29/2/1 23/2/1 11/2/1
f 30/2/1 24/2/1 29/2/1
f 31/1/1 25/1/1 24/1/1
f 31/2/1 24/2/1 30/2/1
f 32/2/1 26/2/1 25/2/1
f 32/1/1 25/1/1 31/1/1
f 33/2/1 16/2/1 26/2/1
f 33/2/1 26/2/1 32/2/1
f 34/3/1 18/3/1 17/3/1
f 34/2/1 16/2/1 33/2/1
f 34/3/1 17/3/1 16/3/1
f 35/3/1 30/3/1 29/3/1
f 35/2/1 32/2/1 31/2/1
f 35/2/1 31/2/1 30/2/1
f 35/2/1 33/2/1 32/2/1
f 35/3/1 29/3/1 28/3/1
f 36/3/1 34/3/1 33/3/1
f 36/2/1 33/2/1 35/2/1
f 37/3/1 18/3/1 34/3/1
f 37/3/1 34/3/1 36/3/1
f 38/3/1 18/3/1 37/3/1
f 39/3/1 36/3/1 35/3/1
f 39/3/1 35/3/1 28/3/1
f 39/3/1 37/3/1 36/3/1
f 40/3/1 37/3/1 39/3/1
f 41/3/1 37/3/1 40/3/1
f 42/3/1 37/3/1 41/3/1
f 43/3/1 41/3/1 40/3/1
f 44/3/1 41/3/1 43/3/1
f 45/2/2 46/2/2 47/2/2
f 47/2/2 46/2/2 48/2/2
f 49/3/2 50/3/2 51/3/2
f 51/3/2 50/3/2 52/3/2
f 53/3/2 54/3/2 56/3/2
f 56/3/2 54/3/2 57/3/2
f 55/3/2 56/3/2 60/3/2
f 57/3/2 58/3/2 60/3/2
f 56/3/2 57/3/2 60/3/2
f 60/3/2 58/3/2 61/3/2
f 59/3/2 60/3/2 63/3/2
f 61/3/2 62/3/2 63/3/2
f 60/3/2 61/3/2 63/3/2
f 63/3/2 62/3/2 64/3/2
f 59/3/2 63/3/2 65/3/2
f 64/3/2 62/3/2 66/3/2
f 59/3/2 65/3/2 67/3/2
f 65/3/2 66/3/2 67/3/2
f 66/3/2 62/3/2 68/3/2
f 67/3/2 66/3/2 68/3/2
f 59/3/2 67/3/2 69/3/2
f 69/3/2 67/3/2 70/3/2
f 70/3/2 67/3/2 71/3/2
f 68/3/2 62/3/2 72/3/2
f 70/3/2 71/3/2 73/3/2
f 71/3/2 72/3/2 73/3/2
f 72/3/2 62/3/2 73/3/2
f 73/3/2 62/3/2 74/3/2
f 70/3/2 73/3/2 75/3/2
f 75/3/2 73/3/2 76/3/2
f 76/3/2 73/3/2 77/3/2
f 77/3/2 73/3/2 78/3/2
f 76/3/2 77/3/2 79/3/2
f 79/3/2 77/3/2 80/3/2
f 83/3/3 82/3/3 81/3/3
f 84/3/3 82/3/3 83/3/3
f 89/3/3 86/3/3 85/3/3
f 90/3/3 86/3/3 89/3/3
f 91/3/3 88/3/3 87/3/3
f 92/3/3 88/3/3 91/3/3
f 97/3/3 94/3/3 93/3/3
f 98/3/3 94/3/3 97/3/3
f 99/3/3 96/3/3 95/3/3
f 100/3/3 96/3/3 99/3/3
f 103/3/3 102/3/3 101/3/3
f 104/3/3 102/3/3 103/3/3
f 107/3/3 106/3/3 105/3/3
f 108/3/3 106/3/3 107/3/3
f 109/3/4 110/3/4 111/3/4
f 111/3/4 110/3/4 112/3/4
f 113/3/4 114/3/4 115/3/4
f 115/3/4 114/3/4 116/3/4
f 117/3/4 118/3/4 121/3/4
f 121/3/4 118/3/4 122/3/4
f 119/3/4 120/3/4 123/3/4
f 123/3/4 120/3/4 124/3/4
f 125/3/4 126/3/4 129/3/4
f 129/3/4 126/3/4 130/3/4
f 127/3/4 128/3/4 131/3/4
f 131/3/4 128/3/4 132/3/4
f 133/3/4 134/3/4 135/3/4
f 135/3/4 134/3/4 136/3/4
f 139/3/5 138/3/5 137/3/5
f 140/3/5 138/3/5 139/3/5
f 143/3/5 142/3/5 141/3/5
f 144/3/5 142/3/5 143/3/5
f 147/3/5 146/3/5 145/3/5
f 148/3/5 146/3/5 147/3/5
f 151/3/5 150/3/5 149/3/5
f 152/3/5 150/3/5 151/3/5
f 155/3/5 154/3/5 153/3/5
f 156/3/5 154/3/5 155/3/5
f 159/3/5 158/3/5 157/3/5
f 160/3/5 158/3/5 159/3/5
f 163/3/5 162/3/5 161/3/5
f 164/3/5 162/3/5 163/3/5
f 165/3/6 166/3/6 167/3/6
f 167/3/6 166/3/6 168/3/6
f 169/3/6 170/3/6 171/3/6
f 171/3/6 170/3/6 172/3/6
f 173/3/6 174/3/6 175/3/6
f 175/3/6 174/3/6 176/3/6
f 177/3/6 178/3/6 179/3/6
f 179/3/6 178/3/6 180/3/6
f 181/3/6 182/3/6 183/3/6
f 183/3/6 182/3/6 184/3/6
f 185/3/6 186/3/6 187/3/6
f 187/3/6 186/3/6 188/3/6
f 189/3/6 190/3/6 191/3/6
f 191/3/6 190/3/6 192/3/6
